<?xml version="1.0" standalone="no"?>
<!DOCTYPE svg PUBLIC "-//W3C//DTD SVG 20010904//EN"
 "http://www.w3.org/TR/2001/REC-SVG-20010904/DTD/svg10.dtd">
<svg version="1.0" xmlns="http://www.w3.org/2000/svg"
 width="512.000000pt" height="512.000000pt" viewBox="0 0 512.000000 512.000000"
 preserveAspectRatio="xMidYMid meet">

<g transform="translate(0.000000,512.000000) scale(0.100000,-0.100000)"
fill="#000000" stroke="none">
<path d="M1513 4508 l-1043 -602 0 -1206 0 -1207 1037 -598 c571 -330 1045
-599 1053 -599 9 0 482 269 1053 598 l1037 599 0 1207 0 1207 -1033 596 c-567
328 -1039 598 -1047 601 -9 4 -440 -239 -1057 -596z m1577 -1013 l0 -105 435
0 c467 0 453 2 419 -50 -83 -124 -271 -226 -524 -285 -191 -45 -302 -97 -387
-181 -84 -84 -94 -176 -31 -297 41 -79 202 -242 314 -317 l82 -55 58 -185 c31
-102 59 -191 62 -197 3 -10 -128 -13 -637 -13 -364 0 -641 4 -641 9 0 12 68
72 159 140 88 65 256 154 388 206 99 38 97 39 -83 25 -375 -30 -666 -138 -893
-333 -30 -26 -56 -45 -58 -44 -1 2 24 91 56 197 l58 194 89 60 c117 81 260
224 301 301 64 123 64 196 0 282 -85 112 -360 183 -713 183 l-154 0 0 145 0
146 -115 133 c-63 74 -115 137 -115 140 0 3 434 6 965 6 l965 0 0 -105z"/>
</g>
</svg>
