<?xml version="1.0" standalone="no"?>
<!DOCTYPE svg PUBLIC "-//W3C//DTD SVG 20010904//EN"
 "http://www.w3.org/TR/2001/REC-SVG-20010904/DTD/svg10.dtd">
<svg version="1.0" xmlns="http://www.w3.org/2000/svg"
 width="512.000000pt" height="512.000000pt" viewBox="0 0 512.000000 512.000000"
 preserveAspectRatio="xMidYMid meet">

<g transform="translate(0.000000,512.000000) scale(0.100000,-0.100000)"
fill="#000000" stroke="none">
<path d="M0 2560 l0 -2560 2560 0 2560 0 0 2560 0 2560 -2560 0 -2560 0 0
-2560z m2050 1590 l0 -460 223 2 222 3 3 232 2 233 231 2 230 3 2 220 2 220
678 3 677 2 0 -680 0 -680 -221 -2 -220 -3 -2 -230 -2 -230 -232 -3 -233 -2 0
-220 0 -220 233 -2 232 -3 2 -230 2 -230 220 -3 221 -2 0 -680 0 -680 -677 2
-678 3 -2 220 -2 220 -230 3 -231 2 -2 233 -3 232 -222 3 -223 2 0 -460 0
-460 -690 0 -690 0 0 2050 0 2050 690 0 690 0 0 -460z"/>
</g>
</svg>
